<svg width="29" height="39" viewBox="0 0 29 39" fill="none" xmlns="http://www.w3.org/2000/svg">
<g clip-path="url(#clip0_1_189)">
<path d="M0.281825 35.8V29.455H1.68583V32.002H4.59283V29.455H6.00583V35.8H4.59283V33.163H1.68583V35.8H0.281825ZM7.5065 32.623C7.5065 31.963 7.6295 31.39 7.8755 30.904C8.1275 30.412 8.4875 30.031 8.9555 29.761C9.4235 29.491 9.9785 29.356 10.6205 29.356C11.2625 29.356 11.8175 29.491 12.2855 29.761C12.7535 30.031 13.1135 30.412 13.3655 30.904C13.6235 31.39 13.7525 31.96 13.7525 32.614C13.7525 33.28 13.6235 33.859 13.3655 34.351C13.1135 34.837 12.7535 35.218 12.2855 35.494C11.8175 35.764 11.2625 35.899 10.6205 35.899C9.9785 35.899 9.4235 35.764 8.9555 35.494C8.4935 35.218 8.1365 34.834 7.8845 34.342C7.6325 33.85 7.5065 33.277 7.5065 32.623ZM8.9735 32.623C8.9735 33.277 9.1085 33.79 9.3785 34.162C9.6545 34.528 10.0685 34.711 10.6205 34.711C11.1605 34.711 11.5715 34.528 11.8535 34.162C12.1355 33.79 12.2765 33.277 12.2765 32.623C12.2765 31.963 12.1355 31.453 11.8535 31.093C11.5775 30.727 11.1665 30.544 10.6205 30.544C10.0685 30.544 9.6545 30.727 9.3785 31.093C9.1085 31.453 8.9735 31.963 8.9735 32.623ZM15.2588 35.8V29.455H16.4918L18.6968 34.405H18.4088L20.6138 29.455H21.8378V35.8H20.5598V31.489H20.9198L18.9488 35.8H18.1388L16.1588 31.489H16.5368V35.8H15.2588ZM23.5424 35.8V29.455H27.9524V30.544H24.8834V32.029H27.7364V33.127H24.8834V34.711H27.9524V35.8H23.5424Z" fill="#FF9900"/>
<path fill-rule="evenodd" clip-rule="evenodd" d="M12.8666 19.7883H9.02547C7.77998 19.7841 6.77073 18.6953 6.76305 17.3464V9.07111C6.76305 8.61975 6.95126 8.19335 7.27007 7.90527L7.94899 7.36031C8.19674 7.07639 8.21883 6.64167 8.00853 6.32447C7.79535 6.00831 7.40451 5.90223 7.07898 6.06863L6.38854 6.62919C5.68657 7.21471 5.27461 8.11223 5.25925 9.07111V17.3547C5.26309 19.6053 6.94742 21.4294 9.02547 21.4336H12.8666C13.2824 21.4336 13.6166 21.0675 13.6166 20.6213C13.6166 20.17 13.2824 19.8049 12.8666 19.8049V19.7883Z" fill="#FF9900"/>
<path fill-rule="evenodd" clip-rule="evenodd" d="M23.3059 9.05155C23.2944 8.10411 22.893 7.20659 22.2102 6.60963L16.4418 1.62907C15.1733 0.523547 13.3651 0.523547 12.0975 1.62907L10.271 3.06739C9.92534 3.33467 9.8466 3.85155 10.0944 4.22491C10.3421 4.59411 10.8184 4.67939 11.1631 4.41211L13.0165 2.91243C13.7444 2.26243 14.7949 2.26243 15.5228 2.91243L21.2912 7.89299C21.6254 8.18211 21.8203 8.61267 21.828 9.07131V17.3549C21.828 18.7038 20.8149 19.7968 19.5733 19.7968H17.8592C17.6834 19.7968 17.5442 19.6419 17.5442 19.4515V15.7179C17.5442 14.5271 16.655 13.5599 15.5564 13.5568H13.0501C12.521 13.5568 12.0149 13.7835 11.6404 14.1902C11.2649 14.5968 11.0546 15.1449 11.0546 15.7179V17.1479C11.0546 17.5941 11.3927 17.9602 11.8046 17.9602C12.2214 17.9602 12.5594 17.5941 12.5594 17.1479V15.7179C12.5556 15.5755 12.6036 15.4413 12.6977 15.3394C12.7879 15.2427 12.9118 15.1855 13.0424 15.1855H15.5487C15.8147 15.1855 16.0327 15.4215 16.0327 15.7096V19.4515C16.0366 20.5435 16.8538 21.4255 17.8592 21.4255H19.5281C21.61 21.4255 23.2944 19.5971 23.2944 17.3466L23.3059 9.05155Z" fill="#FF9900"/>
</g>
<defs>
<clipPath id="clip0_1_189">
<rect width="27.8481" height="37.44" fill="white" transform="translate(0.457947 0.799988)"/>
</clipPath>
</defs>
</svg>
