<svg width="64" height="39" viewBox="0 0 64 39" fill="none" xmlns="http://www.w3.org/2000/svg">
<g clip-path="url(#clip0_1_193)">
<path d="M11.9517 35.8V29.455H13.3557V32.002H16.2627V29.455H17.6757V35.8H16.2627V33.163H13.3557V35.8H11.9517ZM19.3654 35.8V29.455H20.7694V35.8H19.3654ZM24.7498 35.899C24.2398 35.899 23.7628 35.836 23.3188 35.71C22.8748 35.584 22.4968 35.41 22.1848 35.188L22.5988 34.09C22.8028 34.228 23.0188 34.345 23.2468 34.441C23.4748 34.537 23.7148 34.612 23.9668 34.666C24.2188 34.714 24.4828 34.738 24.7588 34.738C25.1908 34.738 25.4968 34.672 25.6768 34.54C25.8628 34.408 25.9558 34.24 25.9558 34.036C25.9558 33.85 25.8928 33.709 25.7668 33.613C25.6468 33.511 25.4248 33.424 25.1008 33.352L24.0388 33.136C23.4568 33.016 23.0218 32.812 22.7338 32.524C22.4458 32.236 22.3018 31.852 22.3018 31.372C22.3018 30.964 22.4098 30.61 22.6258 30.31C22.8418 30.01 23.1448 29.776 23.5348 29.608C23.9308 29.44 24.3928 29.356 24.9208 29.356C25.3708 29.356 25.7908 29.419 26.1808 29.545C26.5708 29.671 26.8918 29.851 27.1438 30.085L26.7298 31.111C26.4838 30.913 26.2078 30.766 25.9018 30.67C25.6018 30.568 25.2658 30.517 24.8938 30.517C24.5038 30.517 24.2038 30.586 23.9938 30.724C23.7898 30.862 23.6878 31.051 23.6878 31.291C23.6878 31.471 23.7508 31.618 23.8768 31.732C24.0028 31.84 24.2248 31.927 24.5428 31.993L25.5868 32.2C26.1808 32.32 26.6218 32.521 26.9098 32.803C27.1978 33.085 27.3418 33.46 27.3418 33.928C27.3418 34.324 27.2338 34.669 27.0178 34.963C26.8078 35.257 26.5078 35.488 26.1178 35.656C25.7338 35.818 25.2778 35.899 24.7498 35.899ZM30.1138 35.8V30.598H28.0978V29.455H33.5338V30.598H31.5178V35.8H30.1138ZM34.1312 32.623C34.1312 31.963 34.2542 31.39 34.5002 30.904C34.7522 30.412 35.1122 30.031 35.5802 29.761C36.0482 29.491 36.6032 29.356 37.2452 29.356C37.8872 29.356 38.4422 29.491 38.9102 29.761C39.3782 30.031 39.7382 30.412 39.9902 30.904C40.2482 31.39 40.3772 31.96 40.3772 32.614C40.3772 33.28 40.2482 33.859 39.9902 34.351C39.7382 34.837 39.3782 35.218 38.9102 35.494C38.4422 35.764 37.8872 35.899 37.2452 35.899C36.6032 35.899 36.0482 35.764 35.5802 35.494C35.1182 35.218 34.7612 34.834 34.5092 34.342C34.2572 33.85 34.1312 33.277 34.1312 32.623ZM35.5982 32.623C35.5982 33.277 35.7332 33.79 36.0032 34.162C36.2792 34.528 36.6932 34.711 37.2452 34.711C37.7852 34.711 38.1962 34.528 38.4782 34.162C38.7602 33.79 38.9012 33.277 38.9012 32.623C38.9012 31.963 38.7602 31.453 38.4782 31.093C38.2022 30.727 37.7912 30.544 37.2452 30.544C36.6932 30.544 36.2792 30.727 36.0032 31.093C35.7332 31.453 35.5982 31.963 35.5982 32.623ZM41.8745 35.8V29.455H44.7545C45.4685 29.455 46.0205 29.626 46.4105 29.968C46.8005 30.304 46.9955 30.775 46.9955 31.381C46.9955 31.777 46.9055 32.119 46.7255 32.407C46.5515 32.689 46.2995 32.908 45.9695 33.064C45.6455 33.214 45.2555 33.289 44.7995 33.289L44.9075 33.091H45.2765C45.5345 33.091 45.7625 33.16 45.9605 33.298C46.1645 33.436 46.3325 33.637 46.4645 33.901L47.4095 35.8H45.8615L44.8805 33.757C44.8085 33.583 44.6945 33.469 44.5385 33.415C44.3885 33.355 44.2145 33.325 44.0165 33.325H43.2785V35.8H41.8745ZM43.2785 32.317H44.5115C44.8775 32.317 45.1565 32.242 45.3485 32.092C45.5405 31.942 45.6365 31.72 45.6365 31.426C45.6365 31.132 45.5405 30.913 45.3485 30.769C45.1565 30.619 44.8775 30.544 44.5115 30.544H43.2785V32.317ZM50.1065 35.8V32.785L50.3945 33.586L47.6135 29.455H49.2335L50.9795 32.173H50.6915L52.4375 29.455H54.0035L51.2315 33.586L51.5105 32.785V35.8H50.1065Z" fill="black"/>
<path fill-rule="evenodd" clip-rule="evenodd" d="M30.852 6.04471C31.2044 6.08527 31.4704 6.41391 31.4704 6.80079C31.4704 7.19079 31.2044 7.51527 30.852 7.55999H28.2189C27.8655 7.51527 27.5995 7.19079 27.5995 6.80079C27.5995 6.41391 27.8655 6.08527 28.2189 6.04471H30.852ZM35.1358 10.4439C35.398 10.4117 35.6573 10.5458 35.7994 10.7933C35.9386 11.0419 35.9386 11.3581 35.7994 11.6066C35.6573 11.8541 35.398 11.9883 35.1358 11.9561H28.2112C27.8588 11.9155 27.5919 11.59 27.5919 11.2C27.5919 10.81 27.8588 10.4845 28.2112 10.4439H35.1358ZM35.1358 14.8525C35.5142 14.8525 35.8186 15.1894 35.8186 15.6033C35.8186 16.0183 35.5142 16.3553 35.1358 16.3553H28.2112C27.8319 16.3553 27.5246 16.0183 27.5246 15.6033C27.5246 15.1894 27.8319 14.8525 28.2112 14.8525H35.1358ZM35.3836 0.799988C38.4709 0.799988 40.3194 2.83111 40.3271 6.21943V16.1805C40.3271 19.5689 38.4891 21.6 35.3941 21.6H32.6487C32.3001 21.5594 32.0332 21.2308 32.0332 20.8439C32.0332 20.4539 32.3001 20.1294 32.6487 20.0847H35.3836C37.743 20.0847 38.9318 18.7722 38.9318 16.1805V6.21943C38.9318 3.62775 37.743 2.31527 35.3836 2.31527H27.975C25.6194 2.31527 24.4229 3.62775 24.4229 6.21943V16.1805C24.4229 18.7722 25.6194 20.0847 27.975 20.0847C28.3274 20.1294 28.5934 20.4539 28.5934 20.8439C28.5934 21.2308 28.3274 21.5594 27.975 21.6C24.8916 21.6 23.0421 19.5689 23.0421 16.1805V6.21943C23.0421 2.81863 24.8916 0.799988 27.975 0.799988H35.3836Z" fill="black"/>
</g>
<defs>
<clipPath id="clip0_1_193">
<rect width="62.4182" height="37.44" fill="white" transform="translate(0.955597 0.799988)"/>
</clipPath>
</defs>
</svg>
