<svg width="69" height="38" viewBox="0 0 69 38" fill="none" xmlns="http://www.w3.org/2000/svg">
<g clip-path="url(#clip0_1_200)">
<path d="M12.0229 33.8V27.455H13.2559L15.4609 32.405H15.1729L17.3779 27.455H18.6019V33.8H17.3239V29.489H17.6839L15.7129 33.8H14.9029L12.9229 29.489H13.3009V33.8H12.0229ZM21.8454 33.8V30.785L22.1334 31.586L19.3524 27.455H20.9724L22.7184 30.173H22.4304L24.1764 27.455H25.7424L22.9704 31.586L23.2494 30.785V33.8H21.8454ZM29.4209 33.8V27.455H32.3009C33.0149 27.455 33.5669 27.626 33.9569 27.968C34.3469 28.304 34.5419 28.775 34.5419 29.381C34.5419 29.777 34.4519 30.119 34.2719 30.407C34.0979 30.689 33.8459 30.908 33.5159 31.064C33.1919 31.214 32.8019 31.289 32.3459 31.289L32.4539 31.091H32.8229C33.0809 31.091 33.3089 31.16 33.5069 31.298C33.7109 31.436 33.8789 31.637 34.0109 31.901L34.9559 33.8H33.4079L32.4269 31.757C32.3549 31.583 32.2409 31.469 32.0849 31.415C31.9349 31.355 31.7609 31.325 31.5629 31.325H30.8249V33.8H29.4209ZM30.8249 30.317H32.0579C32.4239 30.317 32.7029 30.242 32.8949 30.092C33.0869 29.942 33.1829 29.72 33.1829 29.426C33.1829 29.132 33.0869 28.913 32.8949 28.769C32.7029 28.619 32.4239 28.544 32.0579 28.544H30.8249V30.317ZM36.193 33.8V27.455H37.597V33.8H36.193ZM39.2824 33.8V27.455H41.7034C42.4414 27.455 43.0654 27.581 43.5754 27.833C44.0854 28.085 44.4694 28.448 44.7274 28.922C44.9914 29.39 45.1234 29.957 45.1234 30.623C45.1234 31.283 44.9914 31.85 44.7274 32.324C44.4694 32.798 44.0854 33.164 43.5754 33.422C43.0654 33.674 42.4414 33.8 41.7034 33.8H39.2824ZM40.6864 32.648H41.6224C42.3304 32.648 42.8554 32.483 43.1974 32.153C43.5454 31.817 43.7194 31.307 43.7194 30.623C43.7194 29.933 43.5454 29.423 43.1974 29.093C42.8554 28.763 42.3304 28.598 41.6224 28.598H40.6864V32.648ZM46.6258 33.8V27.455H51.0358V28.544H47.9668V30.029H50.8198V31.127H47.9668V32.711H51.0358V33.8H46.6258ZM54.6206 33.899C54.1106 33.899 53.6336 33.836 53.1896 33.71C52.7456 33.584 52.3676 33.41 52.0556 33.188L52.4696 32.09C52.6736 32.228 52.8896 32.345 53.1176 32.441C53.3456 32.537 53.5856 32.612 53.8376 32.666C54.0896 32.714 54.3536 32.738 54.6296 32.738C55.0616 32.738 55.3676 32.672 55.5476 32.54C55.7336 32.408 55.8266 32.24 55.8266 32.036C55.8266 31.85 55.7636 31.709 55.6376 31.613C55.5176 31.511 55.2956 31.424 54.9716 31.352L53.9096 31.136C53.3276 31.016 52.8926 30.812 52.6046 30.524C52.3166 30.236 52.1726 29.852 52.1726 29.372C52.1726 28.964 52.2806 28.61 52.4966 28.31C52.7126 28.01 53.0156 27.776 53.4056 27.608C53.8016 27.44 54.2636 27.356 54.7916 27.356C55.2416 27.356 55.6616 27.419 56.0516 27.545C56.4416 27.671 56.7626 27.851 57.0146 28.085L56.6006 29.111C56.3546 28.913 56.0786 28.766 55.7726 28.67C55.4726 28.568 55.1366 28.517 54.7646 28.517C54.3746 28.517 54.0746 28.586 53.8646 28.724C53.6606 28.862 53.5586 29.051 53.5586 29.291C53.5586 29.471 53.6216 29.618 53.7476 29.732C53.8736 29.84 54.0956 29.927 54.4136 29.993L55.4576 30.2C56.0516 30.32 56.4926 30.521 56.7806 30.803C57.0686 31.085 57.2126 31.46 57.2126 31.928C57.2126 32.324 57.1046 32.669 56.8886 32.963C56.6786 33.257 56.3786 33.488 55.9886 33.656C55.6046 33.818 55.1486 33.899 54.6206 33.899Z" fill="black"/>
<path fill-rule="evenodd" clip-rule="evenodd" d="M39.6705 9.76999C40.0229 9.76999 40.3081 10.0872 40.3081 10.4813C40.3081 10.8713 40.0229 11.1875 39.6705 11.1875H39.3776C39.0252 11.1875 38.7361 10.8713 38.7361 10.4813C38.7361 10.0872 39.0252 9.76999 39.3776 9.76999H39.6705ZM38.1177 0.799988C41.1819 0.799988 43.6729 3.56223 43.6729 6.95471V14.4053C43.6729 17.7977 41.1819 20.56 38.1177 20.56C37.7653 20.56 37.4762 20.2428 37.4762 19.8486C37.4762 19.4586 37.7653 19.1425 38.1177 19.1425C40.4733 19.1425 42.3938 17.0177 42.3938 14.4053V8.45751H39.2393C38.2041 8.46167 37.36 9.39663 37.36 10.5417C37.36 11.6919 38.2041 12.6258 39.2393 12.6258H40.5482C40.9044 12.6258 41.1896 12.9472 41.1896 13.3372C41.1896 13.7272 40.9044 14.0475 40.5482 14.0475H39.2393C37.4983 14.0433 36.0809 12.4761 36.0771 10.5417C36.0809 8.61247 37.4983 7.03999 39.2393 7.03999H42.3938V6.95471C42.3938 4.34223 40.4733 2.21751 38.1177 2.21751H30.0225C28.1212 2.21751 26.5271 3.60695 25.9711 5.50807H34.411C34.7644 5.50807 35.0496 5.82527 35.0496 6.21943C35.0496 6.60943 34.7644 6.92663 34.411 6.92663H25.7502L25.7464 6.95471V14.4053C25.7464 17.0177 27.6631 19.1425 30.0225 19.1425H34.096C34.4494 19.1425 34.7337 19.4586 34.7337 19.8486C34.7337 20.2428 34.4494 20.56 34.096 20.56H30.0225C26.9583 20.56 24.4673 17.7977 24.4673 14.4053V6.95471C24.4673 3.56223 26.9583 0.799988 30.0225 0.799988H38.1177Z" fill="black"/>
</g>
<defs>
<clipPath id="clip0_1_200">
<rect width="68.1799" height="36.4" fill="white" transform="translate(0.460281 0.799988)"/>
</clipPath>
</defs>
</svg>
