<svg width="49" height="37" viewBox="0 0 49 37" fill="none" xmlns="http://www.w3.org/2000/svg">
<path d="M3.26615 34.899C2.75615 34.899 2.27915 34.836 1.83515 34.71C1.39114 34.584 1.01314 34.41 0.701145 34.188L1.11514 33.09C1.31914 33.228 1.53514 33.345 1.76315 33.441C1.99115 33.537 2.23115 33.612 2.48314 33.666C2.73514 33.714 2.99914 33.738 3.27514 33.738C3.70714 33.738 4.01314 33.672 4.19314 33.54C4.37915 33.408 4.47215 33.24 4.47215 33.036C4.47215 32.85 4.40915 32.709 4.28315 32.613C4.16315 32.511 3.94115 32.424 3.61715 32.352L2.55515 32.136C1.97314 32.016 1.53814 31.812 1.25014 31.524C0.962145 31.236 0.818145 30.852 0.818145 30.372C0.818145 29.964 0.926145 29.61 1.14214 29.31C1.35814 29.01 1.66114 28.776 2.05114 28.608C2.44715 28.44 2.90915 28.356 3.43715 28.356C3.88715 28.356 4.30715 28.419 4.69715 28.545C5.08715 28.671 5.40815 28.851 5.66015 29.085L5.24615 30.111C5.00015 29.913 4.72415 29.766 4.41815 29.67C4.11815 29.568 3.78215 29.517 3.41015 29.517C3.02015 29.517 2.72015 29.586 2.51015 29.724C2.30614 29.862 2.20414 30.051 2.20414 30.291C2.20414 30.471 2.26714 30.618 2.39314 30.732C2.51915 30.84 2.74115 30.927 3.05915 30.993L4.10315 31.2C4.69715 31.32 5.13815 31.521 5.42615 31.803C5.71415 32.085 5.85814 32.46 5.85814 32.928C5.85814 33.324 5.75015 33.669 5.53415 33.963C5.32415 34.257 5.02415 34.488 4.63415 34.656C4.25015 34.818 3.79415 34.899 3.26615 34.899ZM7.29497 34.8V28.455H11.705V29.544H8.63597V31.029H11.489V32.127H8.63597V33.711H11.705V34.8H7.29497ZM14.5497 34.8V29.598H12.5337V28.455H17.9697V29.598H15.9537V34.8H14.5497ZM20.7241 34.8V29.598H18.7081V28.455H24.1441V29.598H22.1281V34.8H20.7241ZM25.3085 34.8V28.455H26.7125V34.8H25.3085ZM28.3979 34.8V28.455H29.4419L32.8889 32.838H32.6459V28.455H33.9509V34.8H32.9069L29.4689 30.417H29.7029V34.8H28.3979ZM38.7768 34.899C38.0508 34.899 37.4388 34.767 36.9408 34.503C36.4488 34.233 36.0768 33.855 35.8248 33.369C35.5728 32.877 35.4468 32.304 35.4468 31.65C35.4468 30.978 35.5818 30.396 35.8518 29.904C36.1278 29.412 36.5238 29.031 37.0398 28.761C37.5558 28.491 38.1738 28.356 38.8938 28.356C39.3558 28.356 39.7608 28.416 40.1088 28.536C40.4628 28.65 40.7718 28.815 41.0358 29.031L40.5858 30.12C40.3938 29.982 40.2138 29.874 40.0458 29.796C39.8778 29.712 39.7038 29.655 39.5238 29.625C39.3438 29.589 39.1368 29.571 38.9028 29.571C38.2428 29.571 37.7448 29.751 37.4088 30.111C37.0788 30.465 36.9138 30.981 36.9138 31.659C36.9138 32.331 37.0698 32.841 37.3818 33.189C37.6938 33.537 38.1828 33.711 38.8488 33.711C39.0708 33.711 39.2988 33.69 39.5328 33.648C39.7668 33.606 39.9978 33.543 40.2258 33.459L39.9738 33.999V32.289H38.5788V31.29H41.1348V34.404C40.8168 34.56 40.4478 34.683 40.0278 34.773C39.6138 34.857 39.1968 34.899 38.7768 34.899ZM45.0368 34.899C44.5268 34.899 44.0498 34.836 43.6058 34.71C43.1618 34.584 42.7838 34.41 42.4718 34.188L42.8858 33.09C43.0898 33.228 43.3058 33.345 43.5338 33.441C43.7618 33.537 44.0018 33.612 44.2538 33.666C44.5058 33.714 44.7698 33.738 45.0458 33.738C45.4778 33.738 45.7838 33.672 45.9638 33.54C46.1498 33.408 46.2428 33.24 46.2428 33.036C46.2428 32.85 46.1798 32.709 46.0538 32.613C45.9338 32.511 45.7118 32.424 45.3878 32.352L44.3258 32.136C43.7438 32.016 43.3088 31.812 43.0208 31.524C42.7328 31.236 42.5888 30.852 42.5888 30.372C42.5888 29.964 42.6968 29.61 42.9128 29.31C43.1288 29.01 43.4318 28.776 43.8218 28.608C44.2178 28.44 44.6798 28.356 45.2078 28.356C45.6578 28.356 46.0778 28.419 46.4678 28.545C46.8578 28.671 47.1788 28.851 47.4308 29.085L47.0168 30.111C46.7708 29.913 46.4948 29.766 46.1888 29.67C45.8888 29.568 45.5528 29.517 45.1808 29.517C44.7908 29.517 44.4908 29.586 44.2808 29.724C44.0768 29.862 43.9748 30.051 43.9748 30.291C43.9748 30.471 44.0378 30.618 44.1638 30.732C44.2898 30.84 44.5118 30.927 44.8298 30.993L45.8738 31.2C46.4678 31.32 46.9088 31.521 47.1968 31.803C47.4848 32.085 47.6288 32.46 47.6288 32.928C47.6288 33.324 47.5208 33.669 47.3048 33.963C47.0948 34.257 46.7948 34.488 46.4048 34.656C46.0208 34.818 45.5648 34.899 45.0368 34.899Z" fill="black"/>
<path d="M15.8731 5.16335C16.0774 5.12379 16.2894 5.16536 16.4621 5.27888C16.8035 5.50552 16.9024 5.95394 16.687 6.29776L16.6305 6.40887C16.4169 6.89799 16.6077 7.47657 17.0918 7.74704C17.4834 7.98141 17.8058 8.31138 18.0272 8.70444C18.7165 9.94093 18.2887 11.4882 17.0558 12.2178C16.5345 12.5091 16.3533 13.1577 16.651 13.6671L17.2717 14.7123C17.4129 14.9614 17.652 15.1435 17.9339 15.2164C18.2157 15.2894 18.5158 15.2469 18.7648 15.0988C19.1663 14.8714 19.6228 14.7531 20.087 14.7563C21.5773 14.7563 22.7854 15.936 22.7854 17.3913C22.7903 17.9797 23.2802 18.4541 23.8827 18.4541L23.8737 18.4717C24.1533 18.4717 24.4117 18.6173 24.5514 18.8538C24.6912 19.0902 24.6912 19.3815 24.5514 19.6179C24.4117 19.8544 24.1533 20 23.8737 20C22.3835 20 21.1753 18.8202 21.1753 17.365C21.1778 17.1797 21.128 16.9974 21.0314 16.8379C20.7296 16.3278 20.0627 16.1512 19.5383 16.4427L19.3785 16.5212C18.1415 17.0796 16.6565 16.6479 15.9405 15.4941L15.3288 14.4488C14.6395 13.2123 15.0673 11.6651 16.3002 10.9354C16.4637 10.8416 16.5999 10.7085 16.696 10.549C16.8764 10.3034 16.9412 9.99452 16.8743 9.69949C16.8073 9.40446 16.6149 9.15121 16.3452 9.00307L16.1953 8.90769C15.0786 8.145 14.7132 6.67466 15.3738 5.48968L15.4504 5.39452C15.562 5.2765 15.7097 5.195 15.8731 5.16335ZM32.0016 7.70192C32.3562 7.57766 32.7597 7.71243 32.9584 8.03689C33.1782 8.39846 33.0576 8.86557 32.6885 9.08213C32.5251 9.17601 32.3889 9.30902 32.2927 9.4686C32.1462 9.71296 32.1055 10.0043 32.1798 10.2781C32.2541 10.5518 32.4372 10.7853 32.6885 10.9267C33.9613 11.6717 34.3792 13.2805 33.624 14.5279L33.0123 15.5731L32.9146 15.7195C32.1336 16.81 30.6279 17.1668 29.4145 16.5217C29.078 16.3234 28.6577 16.3193 28.3172 16.5111C27.9768 16.7029 27.77 17.0603 27.7774 17.444C27.7344 17.8368 27.3949 18.1347 26.9904 18.1347C26.5859 18.1347 26.2464 17.8368 26.2034 17.444C26.2227 16.5231 26.733 15.6789 27.5494 15.2174C28.3658 14.756 29.3696 14.7443 30.197 15.1866C30.4456 15.3326 30.7442 15.3738 31.0245 15.3008C31.3043 15.2242 31.5428 15.0448 31.6901 14.8002L32.3017 13.7549C32.4479 13.5119 32.4883 13.2219 32.414 12.9496C32.3396 12.6772 32.1566 12.4453 31.906 12.3057C31.4845 12.0549 31.1445 11.6924 30.9256 11.2604C30.2362 10.0239 30.664 8.47671 31.897 7.74704L32.0016 7.70192ZM24.4944 6.70179C25.3905 6.69947 26.2508 7.04546 26.8853 7.66342C27.5198 8.28139 27.8764 9.12051 27.8764 9.99561L27.8708 10.1951C27.7967 11.4511 26.9952 12.5648 25.7949 13.0531C24.5314 13.567 23.0753 13.2866 22.1061 12.3428C21.137 11.3989 20.846 9.97775 21.369 8.74258C21.8919 7.50741 23.1257 6.70179 24.4944 6.70179ZM24.4944 8.24769C23.5009 8.24769 22.6954 9.03419 22.6954 10.0044C22.6954 10.9746 23.5009 11.7611 24.4944 11.7611C25.4879 11.7611 26.2933 10.9746 26.2933 10.0044L26.2873 9.86032C26.2123 8.95751 25.4382 8.24769 24.4944 8.24769ZM25.115 0C26.6053 0 27.8134 1.17975 27.8134 2.63505C27.811 2.82028 27.8608 3.0026 27.9573 3.16206C28.1006 3.40892 28.339 3.5896 28.6194 3.66384C28.8999 3.73808 29.1991 3.69972 29.4504 3.55731C30.7167 2.88418 32.3011 3.30193 33.0483 4.50593C33.2548 4.87335 33.1278 5.33444 32.7605 5.55116C32.3872 5.75928 31.912 5.6384 31.6901 5.27888L31.6194 5.1754C31.2908 4.74961 30.6817 4.62035 30.197 4.8924C29.371 5.33407 28.369 5.32329 27.5532 4.86395C26.7373 4.40461 26.2258 3.56317 26.2034 2.64383C26.2131 2.35592 26.1028 2.07648 25.8976 1.8695C25.6924 1.66252 25.41 1.54574 25.115 1.54589H23.8827C23.587 1.54581 23.3037 1.66232 23.0971 1.86901C22.8905 2.07571 22.7781 2.35509 22.7854 2.64383C22.7771 3.56818 22.2651 4.41819 21.4418 4.87447C20.6186 5.33075 19.6087 5.3242 18.7918 4.85727L18.7558 4.82213L18.6692 4.76137C18.3718 4.52112 18.2945 4.09717 18.5039 3.76812C18.7324 3.40914 19.2157 3.29903 19.5833 3.52218C19.7474 3.61568 19.933 3.66705 20.123 3.6715C20.4141 3.68339 20.6981 3.58174 20.9123 3.38897C21.1266 3.19619 21.2536 2.92811 21.2653 2.64383C21.2598 1.21545 22.4207 0.0428416 23.8827 0H25.115Z" fill="#200E32"/>
</svg>
